<?xml version="1.0" encoding="UTF-8" standalone="no"?>
<!-- Created with Inkscape (http://www.inkscape.org/) -->

<svg
   xmlns:dc="http://purl.org/dc/elements/1.1/"
   xmlns:cc="http://creativecommons.org/ns#"
   xmlns:rdf="http://www.w3.org/1999/02/22-rdf-syntax-ns#"
   xmlns:svg="http://www.w3.org/2000/svg"
   xmlns="http://www.w3.org/2000/svg"
   xmlns:sodipodi="http://sodipodi.sourceforge.net/DTD/sodipodi-0.dtd"
   xmlns:inkscape="http://www.inkscape.org/namespaces/inkscape"
   width="89.271408"
   height="81.543289"
   id="svg3106"
   version="1.1"
   inkscape:version="0.48.3.1 r9886"
   sodipodi:docname="Documento nuevo 4">
  <defs
     id="defs3">
    <clipPath
       clipPathUnits="userSpaceOnUse"
       id="clipPath3003">
      <path
         inkscape:connector-curvature="0"
         d="m 477.265,44.4418 70.866,0 0,70.866 -70.866,0 0,-70.866 z"
         id="path3005" />
    </clipPath>
    <clipPath
       clipPathUnits="userSpaceOnUse"
       id="clipPath3011">
      <path
         inkscape:connector-curvature="0"
         d="m 477.265,47.5367 70.8502,0 0,64.6677 -70.8502,0 0,-64.6677 z"
         id="path3013" />
    </clipPath>
  </defs>
  <sodipodi:namedview
     id="base"
     pagecolor="#ffffff"
     bordercolor="#666666"
     borderopacity="1.0"
     inkscape:pageopacity="0.0"
     inkscape:pageshadow="2"
     inkscape:zoom="13.57645"
     inkscape:cx="31.061638"
     inkscape:cy="32.038969"
     inkscape:document-units="mm"
     inkscape:current-layer="layer1"
     showgrid="false"
     units="mm"
     fit-margin-left="0.1"
     fit-margin-top="0.1"
     fit-margin-right="0.1"
     fit-margin-bottom="0.1"
     inkscape:window-width="1360"
     inkscape:window-height="708"
     inkscape:window-x="-4"
     inkscape:window-y="-4"
     inkscape:window-maximized="1" />
  <metadata
     id="metadata3110">
    <rdf:RDF>
      <cc:Work
         rdf:about="">
        <dc:format>image/svg+xml</dc:format>
        <dc:type
           rdf:resource="http://purl.org/dc/dcmitype/StillImage" />
        <dc:title></dc:title>
      </cc:Work>
    </rdf:RDF>
  </metadata>
  <g
     inkscape:label="Layer 1"
     inkscape:groupmode="layer"
     id="layer1"
     transform="translate(-86.197629,-28.893719)">
    <g
       transform="matrix(1.25,0,0,-1.25,-510.02929,169.50355)"
       id="g2999">
      <g
         id="g3001"
         clip-path="url(#clipPath3003)">
        <g
           id="g3007">
          <g
             id="g3009"
             clip-path="url(#clipPath3011)">
            <path
               inkscape:connector-curvature="0"
               d="m 477.265,47.5367 0,64.6678 69.2975,0 c 3.1175,-21.5668 1.8953,-42.0295 -6.927,-64.6678"
               style="fill:#0fafa9;fill-opacity:1;fill-rule:nonzero;stroke:none"
               id="path3015" />
            <path
               inkscape:connector-curvature="0"
               d="m 505.382,87.7656 -0.2922,-0.2492 c 0.6442,-0.2312 1.3447,0.2138 1.4857,0.5959 l 0.0323,0.4126 c -0.5113,-0.1157 -1.0173,-0.3692 -1.2258,-0.7593"
               style="fill:#3948a4;fill-opacity:1;fill-rule:nonzero;stroke:none"
               id="path3017" />
            <path
               inkscape:connector-curvature="0"
               d="m 508.8798,85.7555 -0.509,0.0315 c 0.001,-0.4478 0.1437,-0.811 0.619,-1.0998 l 0.3797,-0.085 c 0.5198,0.4468 -0.1742,0.9005 -0.4897,1.1533"
               style="fill:#3948a4;fill-opacity:1;fill-rule:nonzero;stroke:none"
               id="path3019" />
            <path
               inkscape:connector-curvature="0"
               d="m 503.7698,96.2836 -0.3793,-0.2689 c 0.773,-0.2775 1.406,0.1344 1.6843,0.6906 l 0.1252,0.5074 c -0.6137,-0.1387 -1.088,-0.1346 -1.4302,-0.9291"
               style="fill:#3948a4;fill-opacity:1;fill-rule:nonzero;stroke:none"
               id="path3021" />
            <path
               inkscape:connector-curvature="0"
               d="M 503.8085,93.7338 503.695,94.15 c -0.6137,-0.1387 -1.0685,-0.3641 -1.3185,-0.8325 l 0,-0.3293 c 0.773,-0.2775 1.182,0.4162 1.432,0.7456"
               style="fill:#3948a4;fill-opacity:1;fill-rule:nonzero;stroke:none"
               id="path3023" />
            <path
               inkscape:connector-curvature="0"
               d="m 501.9012,89.9715 0.2547,-0.1529 c 0.8456,-0.275 0.9021,0.408 1.1104,0.6826 l 0.326,0.2853 c -0.7845,0.1527 -1.4826,-0.4249 -1.6911,-0.815"
               style="fill:#3948a4;fill-opacity:1;fill-rule:nonzero;stroke:none"
               id="path3025" />
            <path
               inkscape:connector-curvature="0"
               d="m 506.8918,101.9689 -0.3053,-0.1454 c 0.0843,-0.5393 1.307,-1.141 1.6138,-0.7104 l 0.0447,0.5127 c -0.3997,0.2695 -0.809,0.4149 -1.3532,0.3431"
               style="fill:#3948a4;fill-opacity:1;fill-rule:nonzero;stroke:none"
               id="path3027" />
            <path
               inkscape:connector-curvature="0"
               d="m 511.1413,103.3476 -0.471,0.143 c -0.2533,-0.3581 -0.3865,-0.6313 -0.12,-1.2501 l 0.2445,-0.489 c 0.557,0.5433 1.107,1.0553 0.3465,1.5961"
               style="fill:#3948a4;fill-opacity:1;fill-rule:nonzero;stroke:none"
               id="path3029" />
            <path
               inkscape:connector-curvature="0"
               d="m 522.7343,92.0667 c -1.0188,-0.231 -2.5543,0.4657 -2.3533,0.601 0.5195,0.3498 1.7015,0.961 2.8423,0.5535 0.1945,-0.0693 0.2752,-0.2615 0.2954,-0.5093 0.0511,-0.5807 -0.4174,-0.5943 -0.7844,-0.6452 z m 3.5152,-0.617 c -0.5303,0.708 -1.535,1.677 -0.7017,2.6164 0.4357,0.3322 0.5652,0.5837 0.6162,1.0446 0.1768,1.5946 0.0953,2.2874 -0.129,3.1635 0.038,0.078 0.2038,-0.0204 0.265,0.2649 0.1648,0.769 -0.265,0.9169 -0.265,0.9169 0.326,0.2852 0.2955,1.3548 -0.224,1.3447 0.2853,0.4686 0.0407,1.2224 -0.4692,1.0594 0,0 0.2582,0.1333 0.224,0.4755 -0.0681,0.6792 -1.0385,0.0135 -0.7878,0.4618 0.132,0.2362 -0.4137,1.039 -0.6922,0.4172 -0.1643,0.1099 0.1155,0.4997 -0.181,0.62 -0.174,-0.007 -0.356,-0.1459 -0.5803,-0.2698 -0.0632,0.259 0.2045,0.394 -0.1242,0.7561 -0.4455,0.3102 -0.4763,-0.1482 -0.7825,-0.318 -0.5698,0.1291 0.7749,0.4653 -0.4313,0.9745 -0.3095,-0.7385 -0.2847,-0.1914 -0.4213,-0.0908 -0.0817,0.0603 -0.2672,-0.1333 -0.6074,-0.4796 0.177,0.489 0.5844,1.0901 -0.0103,0.9169 -0.6785,-0.3057 -0.2815,0.0932 -0.289,0.143 0.5885,0.2644 -0.5422,0.896 -0.4968,0.2293 -0.0149,-0.4539 -0.9929,-0.841 -0.7164,-0.2931 0.1837,0.6891 1.0275,-0.3645 0.2995,0.8624 -0.4538,-0.5138 -0.821,-0.854 -0.8973,-1.0414 -0.351,-1.4079 -0.1575,-0.1243 -0.5243,-0.104 0.4888,0.326 1.1166,0.9067 0.9331,1.2836 -0.5296,0.0408 -1.7481,-0.8252 -0.9778,-0.8965 -0.0572,-0.275 -0.5055,-0.6011 -0.7642,-0.1222 0.4284,0.1127 1.1654,1.5485 0.2487,1.1205 -0.0867,-0.0862 -0.0865,-0.3414 -0.251,-0.5824 -0.2177,0.1953 -0.0437,0.4977 -0.1192,0.6229 -0.73,0.6728 -0.4756,-1.0795 -0.449,-1.4666 -0.9536,0.5908 -0.057,0.4278 -0.3056,1.4058 -0.7904,-0.1427 -1.0044,-0.4788 -0.872,-1.3651 -0.1079,-0.214 -0.3057,-0.7028 -0.4382,-0.1019 0.428,0.5603 0.3873,1.3651 -0.3597,1.389 1.2055,-11.0262 1.1167,-22.1707 -0.6036,-33.0982 l -0.0935,-0.5853 c 0.8666,0.0103 2.1231,0.2698 3.031,0.3145 2.6141,-0.0867 2.5613,-0.4267 6.8863,-0.37 0.997,0.0968 1.275,0.26 1.5973,0.2455 -0.3168,1.3375 -2.5005,0.5798 -3.6098,0.965 -1.8788,0.1803 -2.202,1.3098 -2.7985,2.1445 -0.2703,0.4655 -0.6615,1.0495 -0.6525,1.824 -0.146,1.0048 0.0475,1.5358 0.0288,2.5183 0.0852,0.7255 0.9102,0.58 1.4222,0.5167 1.6273,-0.161 4.3615,0.1025 5.0813,0.3193 1.0285,0.311 1.0527,0.9495 0.3592,1.899 -0.1492,0.4697 -0.1227,0.7615 0.0858,1.1807 0.2837,0.3178 0.65,0.5303 0.3759,0.9238 0,0 -2.3607,0.4962 -0.7354,0.77 1.666,0.2805 1.112,0.958 1.112,0.958 0,0 -0.2735,0.6843 -0.5303,1.1976 -0.1882,0.3764 1.3857,0.4961 1.557,1.095 0.3763,0.5132 -0.8162,1.6526 -1.232,2.2241"
               style="fill:#3948a4;fill-opacity:1;fill-rule:nonzero;stroke:none"
               id="path3031" />
            <path
               inkscape:connector-curvature="0"
               d="m 514.2712,72.7237 c -1.3337,-8.1975 -3.5949,-16.536 -6.9662,-25.187 l -0.003,0 -30.0373,0 0,64.6678 36.9672,0 c 0.3078,-2.129 0.5121,-3.6889 0.732,-5.7995 0,0 -0.6344,-0.1966 -0.5739,-0.7144 0.0665,-0.568 0.3159,-0.7029 0.3159,-0.7029 l -0.2749,-0.1325 c 0,0 -0.3048,0.4439 -0.3058,0.4279 0,0.4355 0.1838,1.0901 -0.815,0.8456 -0.3465,-0.7641 0.55,-0.927 0.3158,-1.4467 -1.0595,-0.061 -0.3153,0.7947 -1.1588,0.3158 0.057,0.2457 -0.122,0.8992 -0.387,0.8559 -0.1155,-0.3703 -0.397,-0.9887 0.0198,-1.3643 -0.132,-0.0881 -0.5238,-0.0271 -0.6143,0.1078 -0.1237,0.1849 0.282,0.5026 -0.044,1.073 -0.978,-0.421 -0.0712,-1.3651 -0.8795,-1.7216 -0.8862,0.112 0.5128,0.8659 -0.1935,1.5179 -0.7947,-0.1834 -1.1037,-1.012 -0.7778,-1.5009 -0.0187,-0.4336 -0.3557,-0.6512 -0.4124,-1.0269 -0.399,0.0624 -0.5683,0.2079 -0.613,0.3578 -0.051,0.2752 0.7232,0.4178 0.2037,1.029 -0.8455,-0.1325 -0.2852,-1.4976 -0.9575,-0.7641 -0.0715,0.3158 -0.2855,0.6011 -0.4515,0.6344 -0.322,-0.2313 -0.4737,-0.5925 -0.2652,-0.9104 l 0.3397,-0.4472 c -0.0437,0.0116 0.1443,-0.2476 0.1018,-0.2344 -0.5603,0.4482 -1.3075,0.7584 -1.7828,0.2547 0.0613,-0.4686 0.4688,-0.4991 1.1105,-0.6418 -0.811,-0.0746 -0.9625,-0.3618 -1.2277,-0.5209 -0.0948,0.5348 -0.7218,0.6177 -1.309,0.7042 -0.326,-0.0814 -0.5418,0.1484 -0.693,0.0328 0.246,-0.6069 0.8392,-1.0699 1.559,-1.2145 0.323,0.0376 0.3667,0.0306 0.5907,0.1528 0.4358,-0.2023 0.3825,-0.2678 0.4963,-0.5712 -0.6315,-0.2833 -1.138,0.0823 -1.7695,-0.0808 10e-4,-0.0211 -0.1653,-0.0224 -0.1733,0.0204 0.01,0.01 -0.0742,0.1516 -0.064,0.1605 -0.2722,0.5221 -1.0058,0.3183 -1.3927,0.2063 -0.057,-0.419 0.3667,-0.7539 0.713,-0.8966 0.4685,-0.1683 0.6212,-0.0312 0.6215,-0.0305 l 0.1935,0.1732 c 0.2037,-0.7436 0.469,-0.7801 0.8677,-1.0842 -0.4357,-0.1589 -0.597,-0.2902 -1.1462,-0.2469 -0.618,0.9542 -2.4721,1.3719 -2.4008,0.9237 0.2649,-0.9882 1.6335,-1.226 1.6335,-1.226 0,0 -0.7167,-0.2649 -0.5942,-0.4957 0.122,-0.231 1.0597,-0.3756 0.927,-0.737 -0.978,0.4347 -1.1683,0.2568 -0.5028,-0.5976 -0.8217,-0.0408 -0.6382,0.8456 -1.1579,1.0493 -0.3769,-0.275 -0.1528,-0.8557 -0.1528,-0.8557 -0.1885,0.149 -0.6825,0.9779 -1.09,0.8761 -0.1325,-0.1019 -0.1325,-0.5502 0.1935,-0.8456 -0.3978,-0.0867 -1.0324,-0.0323 -1.1307,-0.4584 0.644,-0.4913 1.3243,-0.489 2.3335,-0.3629 0,0 0.1844,0.0036 0.3764,0.0674 0.192,0.0642 0.4788,-0.2037 0.4788,-0.2037 -0.4968,-0.1107 -0.2853,-0.2751 -1.2633,-0.4687 -0.6409,-0.3067 -1.1449,-0.7047 -1.1449,-1.3459 0.3977,-0.1957 0.8821,-0.3851 1.1449,-0.0055 0.4279,0.618 0.3135,0.1211 0.6113,0.1494 l 0.3307,-0.105 c -0.2697,-0.659 -1.7687,-0.6506 -1.4718,-1.1276 0.2853,-0.4585 0.7437,-0.9373 0.7437,-0.9373 0,0 -1.0556,0.5331 -1.3549,0.1528 -0.2787,-0.354 0.3463,-0.9271 1.4545,-1.1759 -0.3789,-0.2311 -1.7092,0.0043 -0.9044,-0.831 -0.9577,-0.4041 -0.6452,-0.6894 0.129,-0.4856 l 0.3668,-0.0408 c -0.2273,-0.1589 -0.9126,-0.4742 -0.8558,-0.7198 0.0407,-0.3261 0.815,0.0814 0.9372,-0.1631 0.0544,-0.3532 -0.3737,-0.5053 -0.4116,-0.6065 0.5493,-0.3467 0.8712,0.4914 1.3638,0 -0.1892,-0.3611 -0.9848,-0.2889 -0.8145,-0.8236 0.3033,-0.2311 0.7958,-0.13 1.0988,-0.3468 0,0 -0.403,-0.7766 -0.1938,-0.8786 0.438,-0.214 0.8468,0.476 0.9983,0.5195 -0.112,-0.8965 0.6447,-0.5952 0.4177,-1.202 -0.0105,-0.3257 -0.0307,-0.7745 0.3055,-0.9475 0.693,0.2148 0.758,0.7618 0.7438,1.579 -0.005,0.2855 0.798,-0.1867 0.798,-0.1867 0.489,-0.394 -0.8288,-0.6928 -0.4365,-1.528 1.1157,-0.1563 1.1157,0.7945 2.0257,0.971 0.397,-0.2768 -0.1695,-0.7255 -0.302,-1.0433 -0.5685,-0.318 -1.26,0.0653 -1.8,-1.035 0.7743,-0.3157 1.1433,-0.0562 1.4058,0.0818 0.247,0.1777 0.218,0.2637 0.4075,0.336 0.019,-0.3035 -0.0568,-0.852 0.2345,-0.978 0.2545,0.0205 0.275,0.112 0.489,0.2547 0.224,-0.2342 -0.3568,-0.8047 -0.0103,-1.0492 0.326,0.061 0.4278,0.3462 0.4278,0.3462 0.197,-0.2602 0.4177,-0.2647 0.6215,-0.1935 0.112,0.275 0.1372,0.9115 -0.2225,1.1388 0.1705,0.2022 0.5892,-0.1813 0.7727,-0.0385 0.341,-0.419 -0.428,-1.2225 0.1425,-1.5588 0.5503,0.051 0.5245,0.6003 1.0738,0.8315 -0.0948,-0.5637 0.5545,-0.9727 -0.279,-1.3917 0,-0.5503 1.022,-0.387 0.5295,-1.1818 0.1897,-0.318 0.445,-0.18 0.6725,-0.1222 l 0.489,0.5502 c -0.1328,-0.448 -0.1805,-1.1495 -0.0483,-1.6695 -0.1705,-0.419 0.2315,-0.8977 -0.5305,-1.2572 -0.2082,-1.0405 -0.209,-2.0975 -1.4212,-2.762 -0.682,-1.2863 -4.986,-0.6065 -5.933,-1.8783 0.2272,-0.231 2.4295,-0.1572 2.7135,-0.0705 0.4167,0.2023 0.7387,-0.1592 1.1745,-0.1445 0.9657,0 2.1215,0.3178 2.917,0 1.1225,0.0113 2.0687,-0.0277 3.0819,-0.0317"
               style="fill:#3948a4;fill-opacity:1;fill-rule:nonzero;stroke:none"
               id="path3033" />
            <path
               inkscape:connector-curvature="0"
               d="m 521.9945,58.0005 c 3.582,0 5.9717,2.64 5.9717,5.888 0,3.4197 -2.4124,5.7587 -5.9717,5.7587 -3.5817,0 -6.0165,-2.2745 -6.0165,-5.7587 0,-3.4203 2.4798,-5.888 6.0165,-5.888 z m -2.9727,5.888 c 0,2.043 0.9682,3.3982 2.9727,3.3982 1.9595,0 2.9283,-1.2475 2.9283,-3.3982 0,-2.0005 -0.9461,-3.5278 -2.9283,-3.5278 -1.8917,0 -2.9727,1.5058 -2.9727,3.5278"
               style="fill:#ffffff;fill-opacity:1;fill-rule:nonzero;stroke:none"
               id="path3035" />
            <path
               inkscape:connector-curvature="0"
               d="m 536.6108,67.2457 c -0.6765,0.1075 -1.33,0.2585 -2.0058,0.2585 -1.1878,0 -2.017,-0.28 -2.017,-0.8612 0,-0.667 1.1205,-1.205 2.377,-1.8723 1.1948,-0.6457 2.8408,-1.5065 2.8408,-3.4435 0,-2.1267 -1.8938,-3.3267 -4.7695,-3.3267 -1.305,0 -2.2068,0.257 -3.289,0.4927 l 0,2.3605 c 0.8342,-0.2585 2.1867,-0.7102 3.401,-0.7102 0.8067,0 1.6135,0.366 1.6135,1.0975 0,0.6672 -0.9635,1.0762 -2.3543,1.851 -1.2625,0.6242 -2.8632,1.9155 -2.8632,3.551 0,1.9325 1.939,3.0042 4.5455,3.0042 0.8525,0 1.6867,-0.0857 2.521,-0.1862"
               style="fill:#ffffff;fill-opacity:1;fill-rule:nonzero;stroke:none"
               id="path3037" />
            <path
               inkscape:connector-curvature="0"
               d="m 486.3822,58.373 c 0.0678,1.2472 0.1129,2.2152 0.1129,3.957 l 0,5.9785 c 0,2.1502 -0.1352,3.7847 -0.4514,5.3762 l 3.9487,0 c 0,-1.097 -0.1126,-2.6237 -0.1126,-4.3442 l 0,-5.5913 c 0,-1.5697 0.248,-3.9137 0.4511,-5.3762"
               style="fill:#ffffff;fill-opacity:1;fill-rule:nonzero;stroke:none"
               id="path3039" />
            <path
               inkscape:connector-curvature="0"
               d="m 496.47,53.681 c -0.2259,1.6545 -0.2259,3.5027 -0.2259,4.1045 l 0,1.288 c 0.813,-0.4723 1.6715,-1.073 3.501,-1.073 3.0929,0 5.1899,2.3602 5.1899,5.6082 0,3.5275 -2.1647,6.0385 -5.3254,6.0385 -2.191,0 -3.0945,-1.0515 -3.817,-1.8455 -0.158,0.5778 -0.2256,1.071 -0.4061,1.5648 l -2.8656,-0.215 c 0.3609,-1.887 0.6769,-3.645 0.6769,-5.5748 l 0,-4.5032 c 0,-1.589 -0.3384,-4.576 -0.4512,-5.6075 l 3.7234,0.215 z m -0.4518,9.8957 c 0,2.2043 0.9261,3.71 2.8461,3.71 1.7844,0 3.0269,-1.527 3.0269,-3.6995 0,-1.9357 -0.9714,-3.2265 -2.8914,-3.2265 -1.8973,0 -2.9816,1.0935 -2.9816,3.216"
               style="fill:#ffffff;fill-opacity:1;fill-rule:nonzero;stroke:none"
               id="path3041" />
            <path
               inkscape:connector-curvature="0"
               d="m 513.2548,67.2787 c -0.6763,0.1078 -1.0868,0.2255 -1.762,0.2255 -1.1881,0 -2.0173,-0.28 -2.0173,-0.8612 0,-0.667 1.1208,-1.205 2.377,-1.8723 1.195,-0.6457 2.8407,-1.5065 2.8407,-3.4435 0,-2.1267 -1.8937,-3.3267 -4.7694,-3.3267 -1.305,0 -2.2068,0.257 -3.289,0.4927 l 0,2.3605 c 0.834,-0.2585 2.187,-0.7102 3.401,-0.7102 0.807,0 1.614,0.366 1.614,1.0975 0,0.6672 -0.9638,1.0762 -2.3548,1.851 -1.2622,0.6242 -2.8632,1.9155 -2.8632,3.551 0,1.9325 1.939,3.0042 4.5455,3.0042 0.8527,0 1.8797,-0.123 2.7137,-0.2237"
               style="fill:#ffffff;fill-opacity:1;fill-rule:nonzero;stroke:none"
               id="path3043" />
          </g>
        </g>
      </g>
    </g>
  </g>
</svg>
