<svg xmlns="http://www.w3.org/2000/svg" viewBox="0 0 517.77 177.86"><defs><style>.cls-1{fill:#2774ae;}</style></defs><title>Asset 15</title><g id="Layer_2" data-name="Layer 2"><g id="Layer_1-2" data-name="Layer 1"><path class="cls-1" d="M198.5,24.72h4.11V42.05c0,5.1,2.86,8.33,8.17,8.33S219,47.15,219,42.05V24.72h4.11V42.31C223.11,49.39,219,54,210.78,54S198.5,49.33,198.5,42.31Z"/><path class="cls-1" d="M246,24.1A13.52,13.52,0,0,1,257.4,30l-3.28,1.82A9.78,9.78,0,0,0,246,27.69c-6.25,0-11.09,4.68-11.09,11.34A11,11,0,0,0,246,50.38a9.8,9.8,0,0,0,8.11-4.11l3.33,1.82A13.64,13.64,0,0,1,246,54c-8.64,0-15.25-6.14-15.25-14.94S237.37,24.1,246,24.1Z"/><path class="cls-1" d="M263.8,24.72h4.06v25h13.89v3.59H263.8Z"/><path class="cls-1" d="M314.43,53.34H309.9l-2.65-6.24H292.58L290,53.34h-4.58l12.08-28.62h4.89Zm-20.61-9.83H306l-6.09-14.83Z"/><path class="cls-1" d="M334.72,24.72h4.06v25h13.89v3.59H334.72Z"/><path class="cls-1" d="M359.85,24.72h4.06V53.34h-4.06Z"/><path class="cls-1" d="M373.07,24.72h13.48c5.3,0,8.48,3,8.48,7.34a6.62,6.62,0,0,1-4.9,6.5,7.35,7.35,0,0,1,5.52,7c0,4.63-3.23,7.75-8.79,7.75H373.07ZM386,28.31h-8.89V36.9H386c3.18,0,4.84-1.87,4.84-4.27C390.86,30,389.09,28.31,386,28.31Zm.27,12.18h-9.16v9.26h9.16c3.22,0,5.15-1.77,5.15-4.58C391.44,42.73,389.67,40.49,386.29,40.49Z"/><path class="cls-1" d="M413,42.26h-5.78V53.34h-4.06V24.72h12.28c6,0,9.42,3.85,9.42,8.75a8,8,0,0,1-7.7,8.48l8.12,11.39h-4.79Zm2.08-13.95h-7.86V38.67h7.86c3.75,0,5.62-2.19,5.62-5.2S418.7,28.31,415.11,28.31Z"/><path class="cls-1" d="M458.35,53.34h-4.53l-2.65-6.24H436.5l-2.61,6.24h-4.58l12.08-28.62h4.89Zm-20.61-9.83h12.18l-6.09-14.83Z"/><path class="cls-1" d="M473.75,42.26H468V53.34h-4.05V24.72H476.2c6,0,9.41,3.85,9.41,8.75a8,8,0,0,1-7.7,8.48L486,53.34h-4.79Zm2.08-13.95H468V38.67h7.86c3.75,0,5.62-2.19,5.62-5.2S479.42,28.31,475.83,28.31Z"/><path class="cls-1" d="M502,41.22,490,24.72h4.73l9.21,13,9-13h4.74L506,41.22V53.34H502Z"/><path class="cls-1" d="M198.5,71h10.36c9.41,0,15.29,6.25,15.29,14.37s-5.88,14.25-15.24,14.25H198.5Zm10.41,3.6h-6.35V96h6.3c7.18,0,11.08-4.73,11.08-10.66S216.14,74.57,208.91,74.57Z"/><path class="cls-1" d="M256.41,99.59h-4.52l-2.66-6.24H234.56L232,99.59h-4.58L239.45,71h4.89Zm-20.6-9.83H248L241.9,74.93Z"/><path class="cls-1" d="M266,74.57h-8.85V71H279v3.6h-8.9v25H266Z"/><path class="cls-1" d="M308.86,99.59h-4.53l-2.65-6.24H287l-2.6,6.24h-4.58L291.9,71h4.89Zm-20.6-9.83h12.17l-6.09-14.83Z"/><path class="cls-1" d="M329.1,92.67a13,13,0,0,0,9.32,4.06c5,0,7-2.39,7-4.94,0-3.33-3.59-4.22-7.49-5.15-4.79-1.15-10.1-2.4-10.1-8.12,0-4.79,4.48-8.17,10.36-8.17a14.5,14.5,0,0,1,10.72,4.11l-2.14,2.86a11.79,11.79,0,0,0-8.63-3.43c-3.54,0-6.14,1.87-6.14,4.53s3.27,3.48,7,4.42c4.89,1.2,10.61,2.6,10.61,8.79,0,4.84-3.59,8.59-11.24,8.59-5.1,0-9.1-1.88-11.44-4.48Z"/><path class="cls-1" d="M370.47,70.35a13.54,13.54,0,0,1,11.39,5.88l-3.27,1.82a9.82,9.82,0,0,0-8.12-4.11c-6.25,0-11.09,4.68-11.09,11.34a11,11,0,0,0,11.09,11.35,9.84,9.84,0,0,0,8.12-4.11l3.33,1.82a13.68,13.68,0,0,1-11.45,5.88c-8.64,0-15.25-6.14-15.25-14.94S361.83,70.35,370.47,70.35Z"/><path class="cls-1" d="M388.26,71h4.06V99.59h-4.06Z"/><path class="cls-1" d="M401.48,71h19.87v3.6H405.54v8.58h15.55v3.59H405.54V96h15.81v3.59H401.48Z"/><path class="cls-1" d="M433.32,77V99.59h-4.06V71h4.27l16.7,22.17V71h4.11V99.59h-4.11Z"/><path class="cls-1" d="M477.24,70.35a13.54,13.54,0,0,1,11.39,5.88l-3.28,1.82a9.78,9.78,0,0,0-8.11-4.11c-6.25,0-11.09,4.68-11.09,11.34a11,11,0,0,0,11.09,11.35,9.8,9.8,0,0,0,8.11-4.11l3.33,1.82a13.66,13.66,0,0,1-11.44,5.88c-8.64,0-15.25-6.14-15.25-14.94S468.6,70.35,477.24,70.35Z"/><path class="cls-1" d="M495,71h19.88v3.6H499.09v8.58h15.56v3.59H499.09V96h15.82v3.59H495Z"/><path class="cls-1" d="M212.29,116.6a13.57,13.57,0,0,1,11.4,5.88l-3.28,1.82a9.84,9.84,0,0,0-8.12-4.11c-6.24,0-11.08,4.69-11.08,11.35a11,11,0,0,0,11.08,11.34,9.82,9.82,0,0,0,8.12-4.11l3.33,1.82a13.65,13.65,0,0,1-11.45,5.88c-8.64,0-15.24-6.14-15.24-14.93S203.65,116.6,212.29,116.6Z"/><path class="cls-1" d="M230.09,117.23H250v3.59H234.14v8.58H249.7V133H234.14v9.26H250v3.59H230.09Z"/><path class="cls-1" d="M261.93,123.26v22.58h-4.06V117.23h4.27l16.7,22.16V117.23H283v28.61h-4.11Z"/><path class="cls-1" d="M298.35,120.82H289.5v-3.59h21.81v3.59h-8.9v25h-4.06Z"/><path class="cls-1" d="M317.91,117.23h19.88v3.59H322v8.58h15.56V133H322v9.26h15.82v3.59H317.91Z"/><path class="cls-1" d="M355.53,134.76h-5.77v11.08H345.7V117.23H358c6,0,9.42,3.85,9.42,8.74a8,8,0,0,1-7.7,8.48l8.11,11.39H363Zm2.08-13.94h-7.85v10.35h7.85c3.75,0,5.62-2.18,5.62-5.2S361.21,120.82,357.61,120.82Z"/><path class="cls-1" d="M86.44,77.41a1.82,1.82,0,0,1-.72-.15L1.08,40.44a1.81,1.81,0,0,1,0-3.3L81.5.9A10.41,10.41,0,0,1,90,.9l80.78,36.24a1.8,1.8,0,0,1,0,3.29L87.17,77.26A1.83,1.83,0,0,1,86.44,77.41ZM6.26,38.76,86.44,73.64l79.13-34.87L88.5,4.19a6.79,6.79,0,0,0-5.53,0Z"/><path class="cls-1" d="M99.85,44.24a1.85,1.85,0,0,1-.71-.15L69.5,31.44a1.8,1.8,0,1,1,1.42-3.31l29.64,12.65a1.8,1.8,0,0,1-.71,3.46Z"/><path class="cls-1" d="M85.74,111.49a1.82,1.82,0,0,1-.72-.15L43.4,93.14a1.8,1.8,0,0,1,1.44-3.3L86.46,108a1.81,1.81,0,0,1-.72,3.46Z"/><path class="cls-1" d="M43.42,124.71a1.82,1.82,0,0,1-.72-.15L1.08,106.36a1.8,1.8,0,1,1,1.44-3.3l41.62,18.19a1.81,1.81,0,0,1-.72,3.46Z"/><path class="cls-1" d="M86.87,177.86a1.73,1.73,0,0,1-.74-.16L1.06,139a1.8,1.8,0,1,1,1.49-3.28l84.31,38.32,82.39-38.31a1.8,1.8,0,0,1,1.52,3.26L87.63,177.69A1.83,1.83,0,0,1,86.87,177.86Z"/><path class="cls-1" d="M131.58,108.45a1.8,1.8,0,0,1-.7-3.46l37.94-16.23a1.81,1.81,0,0,1,1.42,3.32l-38,16.22A1.78,1.78,0,0,1,131.58,108.45Z"/><path class="cls-1" d="M1.8,139.19a1.81,1.81,0,0,1-1.8-1.8V38.78a1.81,1.81,0,0,1,3.61,0v98.61A1.81,1.81,0,0,1,1.8,139.19Z"/><path class="cls-1" d="M86.87,175.93a1.81,1.81,0,0,1-1.8-1.8l-.43-97.81a1.81,1.81,0,0,1,1.79-1.81h0a1.81,1.81,0,0,1,1.81,1.8l.42,97.81a1.8,1.8,0,0,1-1.79,1.81Z"/><path class="cls-1" d="M170,139.19a1.8,1.8,0,0,1-1.8-1.8V38.78a1.8,1.8,0,0,1,3.6,0v98.61A1.8,1.8,0,0,1,170,139.19Z"/></g></g></svg>